# xmcd CD database file
#
# Track frame offsets:
#	150
#	14318
#	25975
#	38123
#	57168
#	72297
#	86351
#	103923
#	118591
#	136327
#	148883
#	161438
#
# Disc length: 2426 seconds
#
# Revision: 0
# Processed by: cddbd v1.5.2PL0 Copyright (c) Steve Scherf et al.
# Submitted via: CDex 1.70beta2
#
DISCID=a109780c
DTITLE=Devin Derrick - Honkytonk Mood
DYEAR=2007
DGENRE=Country
TTITLE0=Certfiably Crazy
TTITLE1=Honkytonk Mood
TTITLE2=Seven Nights of Lovin'
TTITLE3=Fool
TTITLE4=I Don't Remember
TTITLE5=Black Rose
TTITLE6=Hangin' Her Dreams On The Line
TTITLE7=Lady
TTITLE8=That's My Girl
TTITLE9=The Warmth From That Old Flame
TTITLE10=Can You Hear Me Now
TTITLE11=Alexus From Texas
EXTD=YEAR: 2007
EXTT0=
EXTT1=
EXTT2=
EXTT3=
EXTT4=
EXTT5=
EXTT6=
EXTT7=
EXTT8=
EXTT9=
EXTT10=
EXTT11=
PLAYORDER=
